<?xml version="1.0" standalone="no"?>
<!DOCTYPE svg PUBLIC "-//W3C//DTD SVG 20010904//EN"
 "http://www.w3.org/TR/2001/REC-SVG-20010904/DTD/svg10.dtd">
<svg version="1.0" xmlns="http://www.w3.org/2000/svg"
 width="512.000000pt" height="512.000000pt" viewBox="0 0 512.000000 512.000000"
 preserveAspectRatio="xMidYMid meet">

<g transform="translate(0.000000,512.000000) scale(0.100000,-0.100000)"
fill="#000000" stroke="none">
<path d="M940 4782 c-155 -42 -267 -169 -290 -329 -13 -92 -13 -3214 0 -3306
24 -167 151 -301 318 -336 36 -7 309 -11 861 -11 l809 0 -24 72 c-89 262 -67
543 61 801 l44 87 -695 0 -695 0 -24 25 c-33 32 -33 78 0 110 l24 25 764 0
763 0 30 31 c81 87 248 188 385 235 209 71 450 72 657 2 l72 -25 -2 1161 -3
1161 -23 58 c-44 107 -127 188 -242 234 -42 17 -127 18 -1385 20 -1246 2
-1345 1 -1405 -15z m2395 -967 c16 -15 25 -36 25 -55 0 -19 -9 -40 -25 -55
l-24 -25 -991 0 -991 0 -24 25 c-16 15 -25 36 -25 55 0 19 9 40 25 55 l24 25
991 0 991 0 24 -25z m0 -960 c16 -15 25 -36 25 -55 0 -19 -9 -40 -25 -55 l-24
-25 -991 0 -991 0 -24 25 c-16 15 -25 36 -25 55 0 19 9 40 25 55 l24 25 991 0
991 0 24 -25z"/>
<path d="M3500 2069 c-159 -18 -347 -100 -469 -205 -133 -115 -250 -305 -286
-464 -26 -115 -23 -281 9 -402 112 -436 504 -717 935 -669 463 52 783 414 782
884 0 181 -41 323 -133 464 -180 275 -510 430 -838 392z m545 -814 c16 -15 25
-36 25 -55 0 -19 -9 -40 -25 -55 l-24 -25 -419 0 -419 0 -21 23 c-35 37 -37
69 -7 105 l27 32 419 0 420 0 24 -25z"/>
</g>
</svg>
